<svg xmlns="http://www.w3.org/2000/svg" viewBox="0 0 26 26" id="Brain"><path style="marker:none" d="M13 0C5.82 0 0 5.82 0 13s5.82 13 13 13 13-5.82 13-13l-.438-3.375A12.997 12.997 0 0 0 13 0zm.906 6c2.385 0 4.5 1.712 4.5 4.375 0 1.355-.41 1.981-.906 2.844-.496.862-1.063 1.937-1.063 3.781v3h-4.53v-2.5a.52.52 0 0 0-.5-.5H9.75c-.358 0-.58-.021-.719-.063-.139-.04-.17-.07-.187-.093-.034-.046-.063-.325-.063-.813v-1.625c.005-.405.003-.613 0-.75-.001-.069.014-.106 0-.187a.577.577 0 0 0-.094-.219c-.069-.108-.304-.25-.437-.25h-.656c.173-.308.36-.667.5-.938.24-.465.375-1.041.375-2.124 0-1.582.709-2.485 1.75-3.094 1.04-.61 2.433-.844 3.687-.844zm-.156 1c-.892-.01-1.997.099-2.906.531-.455.216-.857.53-1.125.969-.269.44-.359 1.022-.219 1.625.144.621.584 1.047 1.063 1.156.478.11.91.003 1.343-.062.433-.065.849-.091 1.188-.031.339.06.625.184.906.593.3.437.636.752 1.031.906.396.155.829.113 1.188-.062.718-.35 1.146-1.18 1.218-2.188.076-1.045-.39-1.94-1.093-2.53-.704-.59-1.644-.9-2.594-.907zm0 1c.729.01 1.47.268 1.969.688.5.418.77.961.719 1.687-.056.763-.401 1.25-.657 1.375-.128.062-.219.061-.375 0s-.375-.214-.594-.531c-.417-.607-.981-.934-1.53-1.031-.55-.099-1.06-.004-1.5.062-.442.066-.824.104-1 .063-.178-.04-.225-.06-.313-.438-.092-.397-.04-.625.094-.844.133-.218.381-.433.718-.594.675-.32 1.682-.443 2.469-.437z" color="#000" overflow="visible" fill="#757575" class="color000000 svgShape"></path></svg>