<svg xmlns="http://www.w3.org/2000/svg" enable-background="new 0 0 512 512" viewBox="0 0 512 512" id="EmployeeTraining"><path d="M229.517,143.162v-8.415c0-6.732,10.379-6.732,10.379,0v8.415C239.896,149.894,229.517,149.894,229.517,143.162z
	 M244.384,173.736c12.342,5.33,22.721,0.281,23.282,0c6.452-2.244,2.805-12.062-3.646-9.818c-1.122,0.281-7.013,3.927-15.708,0
	C242.14,161.394,238.213,170.931,244.384,173.736z M303.289,374.576c0,26.928-21.879,49.088-49.088,49.088
	c-26.928,0-49.088-21.879-49.088-49.088c0-26.928,21.879-49.088,49.088-49.088C281.41,325.488,303.57,347.367,303.289,374.576z
	 M292.911,374.576c0-21.318-17.391-38.709-38.709-38.709s-38.709,17.391-38.709,38.709c0,21.318,17.391,38.709,38.709,38.709
	C275.8,413.285,293.191,395.894,292.911,374.576z M478.883,465.178v9.818c0,2.805-2.244,5.049-5.049,5.049h-145.58h-145.58H37.093
	c-2.805,0-5.049-2.244-5.049-5.049v-9.818c0-19.355,15.708-34.782,34.782-34.782h74.333v-19.355
	c-31.416,27.77-81.626,5.329-81.626-36.746s50.21-64.515,81.626-36.746v-40.112c0-2.805,2.244-5.049,5.049-5.049h23.562V231.8
	c0-23.843,19.355-43.197,43.197-43.197h6.452c-10.378-7.854-17.672-19.635-19.355-33.099h-9.818
	c-10.94,0-19.916-8.695-19.916-19.635c0.281-1.683-3.366-20.196,14.586-24.965v-10.379c0-33.38,27.209-60.308,60.308-60.308h20.196
	c33.38,0,60.308,27.209,60.308,60.308v10.379c17.672,4.768,14.306,23.843,14.586,24.965c0,10.94-8.976,19.635-19.916,19.635h-9.818
	c-1.964,13.464-8.976,25.245-19.355,33.099h6.452c23.843,0,43.197,19.355,43.197,43.197v60.588h23.843
	c2.805,0,5.049,2.244,5.049,5.049v38.429c32.538-25.245,79.382-1.963,79.382,38.709c0,40.953-47.124,63.674-79.382,38.709v17.391
	h74.333C463.175,430.676,478.883,446.384,478.883,465.178z M399.782,413.285c21.318,0,38.709-17.391,38.709-38.709
	c0-37.307-47.685-53.015-69.845-23.001C349.852,376.539,367.804,413.285,399.782,413.285z M283.374,198.701
	c8.415,19.635,12.062,21.879,9.537,26.087c-2.524,4.208-6.171,1.683-26.928,2.525l7.574,64.796h27.209v-30.575
	c0-6.732,10.379-6.732,10.379,0v30.575h19.355V231.8c0-17.952-14.586-32.819-32.819-32.819L283.374,198.701z M266.543,200.104
	v-1.122c0.281,0-5.049,0-5.329,0c0.841,0-13.184,0-16.269,0v1.122c0,5.89,4.768,10.659,10.659,10.659
	C261.494,210.763,266.263,205.994,266.543,200.104z M255.043,223.666l-8.135,68.442h16.269L255.043,223.666z M280.568,216.934
	l-5.049-10.94c-1.122,4.488-3.927,8.135-7.574,10.94H280.568z M311.985,125.771l-0.841,4.488v14.867h9.257
	c5.33,0,9.537-4.208,9.537-9.257v-6.171C329.937,119.88,316.473,116.795,311.985,125.771z M199.504,129.698
	c0-12.342-18.794-12.342-18.794,0v6.171c0,5.049,4.208,9.257,9.537,9.257h9.257V129.698z M204.272,115.953l38.709-27.489
	c11.22-7.854,12.623,33.66,58.905,36.185c1.964-7.293,8.135-12.342,13.745-13.744v-10.379c0-27.489-22.44-49.929-49.929-49.929
	h-20.196c-27.489,0-49.929,22.44-49.929,49.929v10.098C197.82,111.465,201.748,113.428,204.272,115.953z M240.457,187.481
	c6.452,1.683,11.501,0.841,20.196,1.122c21.599,0,39.831-17.391,39.831-39.831v-13.745c-7.573-0.28-14.867-1.683-21.598-4.208
	c3.646,2.525,1.683,5.891,2.244,12.342c0,6.732-10.379,6.732-10.379,0v-8.415c0-3.086,2.525-5.61,6.171-5.049
	c-22.44-9.537-30.294-27.209-32.538-30.014l-34.502,24.404v5.61v18.793C209.882,167.285,222.505,183.273,240.457,187.481z
	 M235.688,206.835l-4.769,10.098h12.062C239.615,214.409,236.81,211.043,235.688,206.835z M179.869,292.108h19.355v-30.575
	c0-6.732,10.379-6.732,10.379,0v30.575h26.648l7.854-64.796h-21.599c-3.927,0-6.452-3.927-4.769-7.293l9.818-21.038h-14.586
	c-17.952,0-32.819,14.586-32.819,32.819L179.869,292.108z M141.72,394.772c15.989-25.245-2.805-58.905-33.099-58.905
	c-21.318,0-38.709,17.391-38.709,38.709C69.912,413.565,121.524,428.151,141.72,394.772z M177.624,465.458
	c0-11.501-8.134-21.599-19.635-23.843c-3.085-0.841,2.525-0.561-91.163-0.561c-13.464,0-24.404,10.94-24.404,24.404v4.488h135.202
	V465.458z M322.924,465.458c0-13.464-10.94-24.404-24.404-24.404h-86.395c-13.464,0-24.404,10.94-24.404,24.404v4.488h135.202
	V465.458z M359.67,430.395v-28.331c-11.781-16.549-11.22-39.27,0-55.539v-44.039h-90.041c-0.28,0-0.28,0-0.28,0h-28.05
	c-0.281,0-0.281,0-0.281,0h-89.48v47.685c8.415,14.586,8.695,33.66,0,48.527v31.977c1.122,0,4.488-0.28,8.415,0.561
	c9.537,1.964,17.672,7.854,22.721,15.989c6.171-9.818,16.83-16.549,29.453-16.549h86.394c12.623,0,23.562,6.732,30.014,16.549
	C339.754,428.712,359.39,430.395,359.67,430.395z M468.505,465.458c0-13.464-10.94-24.404-24.404-24.404c-38.99,0-61.43,0-86.394,0
	c-13.464,0-24.404,10.94-24.404,24.404v4.488h135.202V465.458z M46.069,198.42V147.65c0-7.854,6.452-14.025,14.025-14.025h88.919
	c7.854,0,14.025,6.451,14.025,14.025v50.771c0,7.854-6.451,14.025-14.025,14.025h-30.294c-0.28,7.013,2.244,15.989-5.049,15.989
	c-2.805,0-1.964-0.841-25.245-15.989H60.094C52.521,212.446,46.069,206.275,46.069,198.42z M56.448,198.14
	c0,1.964,1.683,3.646,3.646,3.646c40.953,1.683,23.001-5.049,48.527,11.501v-6.171c0-2.805,2.244-5.049,5.049-5.049h35.343
	c1.963,0,3.646-1.683,3.646-3.646V147.65c0-1.964-1.683-3.646-3.646-3.646H60.094c-1.964,0-3.646,1.683-3.646,3.646V198.14z
	 M72.436,183.554c10.098,0,10.098-15.147,0-15.147C62.338,168.407,62.338,183.554,72.436,183.554z M103.291,183.554
	c10.098,0,10.098-15.147,0-15.147C93.193,168.407,93.193,183.554,103.291,183.554z M142.001,175.98c0-4.208-3.366-7.573-7.574-7.573
	c-4.208,0-7.574,3.366-7.574,7.573C126.854,186.078,142.001,186.078,142.001,175.98z" fill="#757575" class="color000000 svgShape"></path></svg>